<svg width="472" height="405" viewBox="0 0 472 405" fill="none" xmlns="http://www.w3.org/2000/svg">
<path d="M122.672 57.4H95.888L90.344 70H82.928L105.752 19.6H112.88L135.776 70H128.216L122.672 57.4ZM120.152 51.64L109.28 26.944L98.408 51.64H120.152ZM179.87 63.736V70H143.294V19.6H178.862V25.864H150.494V41.344H175.766V47.464H150.494V63.736H179.87ZM225.225 70L214.353 54.52C213.009 54.616 211.953 54.664 211.185 54.664H198.729V70H191.529V19.6H211.185C217.713 19.6 222.849 21.16 226.593 24.28C230.337 27.4 232.209 31.696 232.209 37.168C232.209 41.056 231.249 44.368 229.329 47.104C227.409 49.84 224.673 51.832 221.121 53.08L233.073 70H225.225ZM210.969 48.544C215.529 48.544 219.009 47.56 221.409 45.592C223.809 43.624 225.009 40.816 225.009 37.168C225.009 33.52 223.809 30.736 221.409 28.816C219.009 26.848 215.529 25.864 210.969 25.864H198.729V48.544H210.969ZM266.593 70.576C261.505 70.576 256.921 69.472 252.841 67.264C248.761 65.008 245.545 61.912 243.193 57.976C240.889 54.04 239.737 49.648 239.737 44.8C239.737 39.952 240.889 35.56 243.193 31.624C245.545 27.688 248.761 24.616 252.841 22.408C256.921 20.152 261.505 19.024 266.593 19.024C271.633 19.024 276.193 20.152 280.273 22.408C284.353 24.616 287.545 27.688 289.849 31.624C292.153 35.512 293.305 39.904 293.305 44.8C293.305 49.696 292.153 54.112 289.849 58.048C287.545 61.936 284.353 65.008 280.273 67.264C276.193 69.472 271.633 70.576 266.593 70.576ZM266.593 64.168C270.289 64.168 273.601 63.328 276.529 61.648C279.505 59.968 281.833 57.664 283.513 54.736C285.241 51.76 286.105 48.448 286.105 44.8C286.105 41.152 285.241 37.864 283.513 34.936C281.833 31.96 279.505 29.632 276.529 27.952C273.601 26.272 270.289 25.432 266.593 25.432C262.897 25.432 259.537 26.272 256.513 27.952C253.537 29.632 251.185 31.96 249.457 34.936C247.777 37.864 246.937 41.152 246.937 44.8C246.937 48.448 247.777 51.76 249.457 54.736C251.185 57.664 253.537 59.968 256.513 61.648C259.537 63.328 262.897 64.168 266.593 64.168Z" fill="#EDF2F7"/>
<path d="M174.096 152.576C169.056 152.576 164.496 151.472 160.416 149.264C156.384 147.008 153.216 143.936 150.912 140.048C148.608 136.112 147.456 131.696 147.456 126.8C147.456 121.904 148.608 117.512 150.912 113.624C153.216 109.688 156.408 106.616 160.488 104.408C164.568 102.152 169.128 101.024 174.168 101.024C178.104 101.024 181.704 101.696 184.968 103.04C188.232 104.336 191.016 106.28 193.32 108.872L188.64 113.408C184.848 109.424 180.12 107.432 174.456 107.432C170.712 107.432 167.328 108.272 164.304 109.952C161.28 111.632 158.904 113.96 157.176 116.936C155.496 119.864 154.656 123.152 154.656 126.8C154.656 130.448 155.496 133.76 157.176 136.736C158.904 139.664 161.28 141.968 164.304 143.648C167.328 145.328 170.712 146.168 174.456 146.168C180.072 146.168 184.8 144.152 188.64 140.12L193.32 144.656C191.016 147.248 188.208 149.216 184.896 150.56C181.632 151.904 178.032 152.576 174.096 152.576ZM225.289 152.576C220.201 152.576 215.617 151.472 211.537 149.264C207.457 147.008 204.241 143.912 201.889 139.976C199.585 136.04 198.433 131.648 198.433 126.8C198.433 121.952 199.585 117.56 201.889 113.624C204.241 109.688 207.457 106.616 211.537 104.408C215.617 102.152 220.201 101.024 225.289 101.024C230.329 101.024 234.889 102.152 238.969 104.408C243.049 106.616 246.241 109.688 248.545 113.624C250.849 117.512 252.001 121.904 252.001 126.8C252.001 131.696 250.849 136.112 248.545 140.048C246.241 143.936 243.049 147.008 238.969 149.264C234.889 151.472 230.329 152.576 225.289 152.576ZM225.289 146.168C228.985 146.168 232.297 145.328 235.225 143.648C238.201 141.968 240.529 139.664 242.209 136.736C243.937 133.76 244.801 130.448 244.801 126.8C244.801 123.152 243.937 119.864 242.209 116.936C240.529 113.96 238.201 111.632 235.225 109.952C232.297 108.272 228.985 107.432 225.289 107.432C221.593 107.432 218.233 108.272 215.209 109.952C212.233 111.632 209.881 113.96 208.153 116.936C206.473 119.864 205.633 123.152 205.633 126.8C205.633 130.448 206.473 133.76 208.153 136.736C209.881 139.664 212.233 141.968 215.209 143.648C218.233 145.328 221.593 146.168 225.289 146.168ZM263.005 101.6H284.245C289.573 101.6 294.301 102.656 298.429 104.768C302.557 106.88 305.749 109.856 308.005 113.696C310.309 117.488 311.461 121.856 311.461 126.8C311.461 131.744 310.309 136.136 308.005 139.976C305.749 143.768 302.557 146.72 298.429 148.832C294.301 150.944 289.573 152 284.245 152H263.005V101.6ZM283.813 145.736C287.893 145.736 291.469 144.944 294.541 143.36C297.661 141.776 300.061 139.568 301.741 136.736C303.421 133.856 304.261 130.544 304.261 126.8C304.261 123.056 303.421 119.768 301.741 116.936C300.061 114.056 297.661 111.824 294.541 110.24C291.469 108.656 287.893 107.864 283.813 107.864H270.205V145.736H283.813ZM359.066 145.736V152H322.49V101.6H358.058V107.864H329.69V123.344H354.962V129.464H329.69V145.736H359.066Z" fill="#38A169"/>
<path d="M2.064 309.248C2.064 305.984 2.8 303.056 4.272 300.464C5.744 297.84 7.744 295.792 10.272 294.32C12.832 292.848 15.664 292.112 18.768 292.112C22.416 292.112 25.6 292.992 28.32 294.752C31.04 296.512 33.024 299.008 34.272 302.24H29.04C28.112 300.224 26.768 298.672 25.008 297.584C23.28 296.496 21.2 295.952 18.768 295.952C16.432 295.952 14.336 296.496 12.48 297.584C10.624 298.672 9.168 300.224 8.112 302.24C7.056 304.224 6.528 306.56 6.528 309.248C6.528 311.904 7.056 314.24 8.112 316.256C9.168 318.24 10.624 319.776 12.48 320.864C14.336 321.952 16.432 322.496 18.768 322.496C21.2 322.496 23.28 321.968 25.008 320.912C26.768 319.824 28.112 318.272 29.04 316.256H34.272C33.024 319.456 31.04 321.936 28.32 323.696C25.6 325.424 22.416 326.288 18.768 326.288C15.664 326.288 12.832 325.568 10.272 324.128C7.744 322.656 5.744 320.624 4.272 318.032C2.8 315.44 2.064 312.512 2.064 309.248ZM52.2461 326.432C49.7821 326.432 47.5421 325.872 45.5261 324.752C43.5421 323.632 41.9741 322.048 40.8221 320C39.7021 317.92 39.1421 315.52 39.1421 312.8C39.1421 310.112 39.7181 307.744 40.8701 305.696C42.0541 303.616 43.6541 302.032 45.6701 300.944C47.6861 299.824 49.9421 299.264 52.4381 299.264C54.9341 299.264 57.1901 299.824 59.2061 300.944C61.2221 302.032 62.8061 303.6 63.9581 305.648C65.1421 307.696 65.7341 310.08 65.7341 312.8C65.7341 315.52 65.1261 317.92 63.9101 320C62.7261 322.048 61.1101 323.632 59.0621 324.752C57.0141 325.872 54.7421 326.432 52.2461 326.432ZM52.2461 322.592C53.8141 322.592 55.2861 322.224 56.6621 321.488C58.0381 320.752 59.1421 319.648 59.9741 318.176C60.8381 316.704 61.2701 314.912 61.2701 312.8C61.2701 310.688 60.8541 308.896 60.0221 307.424C59.1901 305.952 58.1021 304.864 56.7581 304.16C55.4141 303.424 53.9581 303.056 52.3901 303.056C50.7901 303.056 49.3181 303.424 47.9741 304.16C46.6621 304.864 45.6061 305.952 44.8061 307.424C44.0061 308.896 43.6061 310.688 43.6061 312.8C43.6061 314.944 43.9901 316.752 44.7581 318.224C45.5581 319.696 46.6141 320.8 47.9261 321.536C49.2381 322.24 50.6781 322.592 52.2461 322.592ZM69.8453 312.752C69.8453 310.064 70.3893 307.712 71.4773 305.696C72.5653 303.648 74.0533 302.064 75.9413 300.944C77.8613 299.824 80.0053 299.264 82.3733 299.264C84.4213 299.264 86.3253 299.744 88.0853 300.704C89.8453 301.632 91.1893 302.864 92.1173 304.4V290.48H96.5333V326H92.1173V321.056C91.2533 322.624 89.9733 323.92 88.2773 324.944C86.5813 325.936 84.5973 326.432 82.3253 326.432C79.9893 326.432 77.8613 325.856 75.9413 324.704C74.0533 323.552 72.5653 321.936 71.4773 319.856C70.3893 317.776 69.8453 315.408 69.8453 312.752ZM92.1173 312.8C92.1173 310.816 91.7173 309.088 90.9173 307.616C90.1173 306.144 89.0293 305.024 87.6533 304.256C86.3093 303.456 84.8213 303.056 83.1893 303.056C81.5573 303.056 80.0693 303.44 78.7253 304.208C77.3813 304.976 76.3093 306.096 75.5093 307.568C74.7093 309.04 74.3093 310.768 74.3093 312.752C74.3093 314.768 74.7093 316.528 75.5093 318.032C76.3093 319.504 77.3813 320.64 78.7253 321.44C80.0693 322.208 81.5573 322.592 83.1893 322.592C84.8213 322.592 86.3093 322.208 87.6533 321.44C89.0293 320.64 90.1173 319.504 90.9173 318.032C91.7173 316.528 92.1173 314.784 92.1173 312.8ZM106.171 295.424C105.339 295.424 104.635 295.136 104.059 294.56C103.483 293.984 103.195 293.28 103.195 292.448C103.195 291.616 103.483 290.912 104.059 290.336C104.635 289.76 105.339 289.472 106.171 289.472C106.971 289.472 107.643 289.76 108.187 290.336C108.763 290.912 109.051 291.616 109.051 292.448C109.051 293.28 108.763 293.984 108.187 294.56C107.643 295.136 106.971 295.424 106.171 295.424ZM108.283 299.696V326H103.915V299.696H108.283ZM128.543 299.216C131.743 299.216 134.335 300.192 136.319 302.144C138.303 304.064 139.295 306.848 139.295 310.496V326H134.975V311.12C134.975 308.496 134.319 306.496 133.007 305.12C131.695 303.712 129.903 303.008 127.631 303.008C125.327 303.008 123.487 303.728 122.111 305.168C120.767 306.608 120.095 308.704 120.095 311.456V326H115.727V299.696H120.095V303.44C120.959 302.096 122.127 301.056 123.599 300.32C125.103 299.584 126.751 299.216 128.543 299.216ZM157.278 299.264C159.55 299.264 161.534 299.76 163.23 300.752C164.958 301.744 166.238 302.992 167.07 304.496V299.696H171.486V326.576C171.486 328.976 170.974 331.104 169.95 332.96C168.926 334.848 167.454 336.32 165.534 337.376C163.646 338.432 161.438 338.96 158.91 338.96C155.454 338.96 152.574 338.144 150.27 336.512C147.966 334.88 146.606 332.656 146.19 329.84H150.51C150.99 331.44 151.982 332.72 153.486 333.68C154.99 334.672 156.798 335.168 158.91 335.168C161.31 335.168 163.262 334.416 164.766 332.912C166.302 331.408 167.07 329.296 167.07 326.576V321.056C166.206 322.592 164.926 323.872 163.23 324.896C161.534 325.92 159.55 326.432 157.278 326.432C154.942 326.432 152.814 325.856 150.894 324.704C149.006 323.552 147.518 321.936 146.43 319.856C145.342 317.776 144.798 315.408 144.798 312.752C144.798 310.064 145.342 307.712 146.43 305.696C147.518 303.648 149.006 302.064 150.894 300.944C152.814 299.824 154.942 299.264 157.278 299.264ZM167.07 312.8C167.07 310.816 166.67 309.088 165.87 307.616C165.07 306.144 163.982 305.024 162.606 304.256C161.262 303.456 159.774 303.056 158.142 303.056C156.51 303.056 155.022 303.44 153.678 304.208C152.334 304.976 151.262 306.096 150.462 307.568C149.662 309.04 149.262 310.768 149.262 312.752C149.262 314.768 149.662 316.528 150.462 318.032C151.262 319.504 152.334 320.64 153.678 321.44C155.022 322.208 156.51 322.592 158.142 322.592C159.774 322.592 161.262 322.208 162.606 321.44C163.982 320.64 165.07 319.504 165.87 318.032C166.67 316.528 167.07 314.784 167.07 312.8ZM209.281 326L201.313 312.32H196.033V326H191.665V292.544H202.465C204.993 292.544 207.121 292.976 208.849 293.84C210.609 294.704 211.921 295.872 212.785 297.344C213.649 298.816 214.081 300.496 214.081 302.384C214.081 304.688 213.409 306.72 212.065 308.48C210.753 310.24 208.769 311.408 206.113 311.984L214.513 326H209.281ZM196.033 308.816H202.465C204.833 308.816 206.609 308.24 207.793 307.088C208.977 305.904 209.569 304.336 209.569 302.384C209.569 300.4 208.977 298.864 207.793 297.776C206.641 296.688 204.865 296.144 202.465 296.144H196.033V308.816ZM244.868 311.84C244.868 312.672 244.82 313.552 244.724 314.48H223.7C223.86 317.072 224.74 319.104 226.34 320.576C227.972 322.016 229.94 322.736 232.244 322.736C234.132 322.736 235.7 322.304 236.948 321.44C238.228 320.544 239.124 319.36 239.636 317.888H244.34C243.636 320.416 242.228 322.48 240.116 324.08C238.004 325.648 235.38 326.432 232.244 326.432C229.748 326.432 227.508 325.872 225.524 324.752C223.572 323.632 222.036 322.048 220.916 320C219.796 317.92 219.236 315.52 219.236 312.8C219.236 310.08 219.78 307.696 220.868 305.648C221.956 303.6 223.476 302.032 225.428 300.944C227.412 299.824 229.684 299.264 232.244 299.264C234.74 299.264 236.948 299.808 238.868 300.896C240.788 301.984 242.26 303.488 243.284 305.408C244.34 307.296 244.868 309.44 244.868 311.84ZM240.356 310.928C240.356 309.264 239.988 307.84 239.252 306.656C238.516 305.44 237.508 304.528 236.228 303.92C234.98 303.28 233.588 302.96 232.052 302.96C229.844 302.96 227.956 303.664 226.388 305.072C224.852 306.48 223.972 308.432 223.748 310.928H240.356ZM249.002 312.752C249.002 310.064 249.546 307.712 250.634 305.696C251.722 303.648 253.21 302.064 255.098 300.944C257.018 299.824 259.162 299.264 261.53 299.264C263.578 299.264 265.482 299.744 267.242 300.704C269.002 301.632 270.346 302.864 271.274 304.4V290.48H275.69V326H271.274V321.056C270.41 322.624 269.13 323.92 267.434 324.944C265.738 325.936 263.754 326.432 261.482 326.432C259.146 326.432 257.018 325.856 255.098 324.704C253.21 323.552 251.722 321.936 250.634 319.856C249.546 317.776 249.002 315.408 249.002 312.752ZM271.274 312.8C271.274 310.816 270.874 309.088 270.074 307.616C269.274 306.144 268.186 305.024 266.81 304.256C265.466 303.456 263.978 303.056 262.346 303.056C260.714 303.056 259.226 303.44 257.882 304.208C256.538 304.976 255.466 306.096 254.666 307.568C253.866 309.04 253.466 310.768 253.466 312.752C253.466 314.768 253.866 316.528 254.666 318.032C255.466 319.504 256.538 320.64 257.882 321.44C259.226 322.208 260.714 322.592 262.346 322.592C263.978 322.592 265.466 322.208 266.81 321.44C268.186 320.64 269.274 319.504 270.074 318.032C270.874 316.528 271.274 314.784 271.274 312.8ZM307.071 311.84C307.071 312.672 307.023 313.552 306.927 314.48H285.903C286.063 317.072 286.943 319.104 288.543 320.576C290.175 322.016 292.143 322.736 294.447 322.736C296.335 322.736 297.903 322.304 299.151 321.44C300.431 320.544 301.327 319.36 301.839 317.888H306.543C305.839 320.416 304.431 322.48 302.319 324.08C300.207 325.648 297.583 326.432 294.447 326.432C291.951 326.432 289.711 325.872 287.727 324.752C285.775 323.632 284.239 322.048 283.119 320C281.999 317.92 281.439 315.52 281.439 312.8C281.439 310.08 281.983 307.696 283.071 305.648C284.159 303.6 285.679 302.032 287.631 300.944C289.615 299.824 291.887 299.264 294.447 299.264C296.943 299.264 299.151 299.808 301.071 300.896C302.991 301.984 304.463 303.488 305.487 305.408C306.543 307.296 307.071 309.44 307.071 311.84ZM302.559 310.928C302.559 309.264 302.191 307.84 301.455 306.656C300.719 305.44 299.711 304.528 298.431 303.92C297.183 303.28 295.791 302.96 294.255 302.96C292.047 302.96 290.159 303.664 288.591 305.072C287.055 306.48 286.175 308.432 285.951 310.928H302.559ZM323.541 303.296H318.021V326H313.653V303.296H310.245V299.696H313.653V297.824C313.653 294.88 314.405 292.736 315.909 291.392C317.445 290.016 319.893 289.328 323.253 289.328V292.976C321.333 292.976 319.973 293.36 319.173 294.128C318.405 294.864 318.021 296.096 318.021 297.824V299.696H323.541V303.296ZM330.89 295.424C330.058 295.424 329.354 295.136 328.778 294.56C328.202 293.984 327.914 293.28 327.914 292.448C327.914 291.616 328.202 290.912 328.778 290.336C329.354 289.76 330.058 289.472 330.89 289.472C331.69 289.472 332.362 289.76 332.906 290.336C333.482 290.912 333.77 291.616 333.77 292.448C333.77 293.28 333.482 293.984 332.906 294.56C332.362 295.136 331.69 295.424 330.89 295.424ZM333.002 299.696V326H328.634V299.696H333.002ZM353.262 299.216C356.462 299.216 359.054 300.192 361.038 302.144C363.022 304.064 364.014 306.848 364.014 310.496V326H359.694V311.12C359.694 308.496 359.038 306.496 357.726 305.12C356.414 303.712 354.622 303.008 352.35 303.008C350.046 303.008 348.206 303.728 346.83 305.168C345.486 306.608 344.814 308.704 344.814 311.456V326H340.446V299.696H344.814V303.44C345.678 302.096 346.846 301.056 348.318 300.32C349.822 299.584 351.47 299.216 353.262 299.216ZM395.149 311.84C395.149 312.672 395.101 313.552 395.005 314.48H373.981C374.141 317.072 375.021 319.104 376.621 320.576C378.253 322.016 380.221 322.736 382.525 322.736C384.413 322.736 385.981 322.304 387.229 321.44C388.509 320.544 389.405 319.36 389.917 317.888H394.621C393.917 320.416 392.509 322.48 390.397 324.08C388.285 325.648 385.661 326.432 382.525 326.432C380.029 326.432 377.789 325.872 375.805 324.752C373.853 323.632 372.317 322.048 371.197 320C370.077 317.92 369.517 315.52 369.517 312.8C369.517 310.08 370.061 307.696 371.149 305.648C372.237 303.6 373.757 302.032 375.709 300.944C377.693 299.824 379.965 299.264 382.525 299.264C385.021 299.264 387.229 299.808 389.149 300.896C391.069 301.984 392.541 303.488 393.565 305.408C394.621 307.296 395.149 309.44 395.149 311.84ZM390.637 310.928C390.637 309.264 390.269 307.84 389.533 306.656C388.797 305.44 387.789 304.528 386.509 303.92C385.261 303.28 383.869 302.96 382.333 302.96C380.125 302.96 378.237 303.664 376.669 305.072C375.133 306.48 374.253 308.432 374.029 310.928H390.637ZM399.283 312.752C399.283 310.064 399.827 307.712 400.915 305.696C402.003 303.648 403.491 302.064 405.379 300.944C407.299 299.824 409.443 299.264 411.811 299.264C413.859 299.264 415.763 299.744 417.523 300.704C419.283 301.632 420.627 302.864 421.555 304.4V290.48H425.971V326H421.555V321.056C420.691 322.624 419.411 323.92 417.715 324.944C416.019 325.936 414.035 326.432 411.763 326.432C409.427 326.432 407.299 325.856 405.379 324.704C403.491 323.552 402.003 321.936 400.915 319.856C399.827 317.776 399.283 315.408 399.283 312.752ZM421.555 312.8C421.555 310.816 421.155 309.088 420.355 307.616C419.555 306.144 418.467 305.024 417.091 304.256C415.747 303.456 414.259 303.056 412.627 303.056C410.995 303.056 409.507 303.44 408.163 304.208C406.819 304.976 405.747 306.096 404.947 307.568C404.147 309.04 403.747 310.768 403.747 312.752C403.747 314.768 404.147 316.528 404.947 318.032C405.747 319.504 406.819 320.64 408.163 321.44C409.507 322.208 410.995 322.592 412.627 322.592C414.259 322.592 415.747 322.208 417.091 321.44C418.467 320.64 419.555 319.504 420.355 318.032C421.155 316.528 421.555 314.784 421.555 312.8Z" fill="#A0AEC0"/>
</svg>
