<svg width="182" height="67" viewBox="0 0 182 67" fill="none" xmlns="http://www.w3.org/2000/svg">
<path d="M93.224 18.8H84.296L82.448 23H79.976L87.584 6.2H89.96L97.592 23H95.072L93.224 18.8ZM92.384 16.88L88.76 8.648L85.136 16.88H92.384ZM112.29 20.912V23H100.098V6.2H111.954V8.288H102.498V13.448H110.922V15.488H102.498V20.912H112.29ZM127.408 23L123.784 17.84C123.336 17.872 122.984 17.888 122.728 17.888H118.576V23H116.176V6.2H122.728C124.904 6.2 126.616 6.72 127.864 7.76C129.112 8.8 129.736 10.232 129.736 12.056C129.736 13.352 129.416 14.456 128.776 15.368C128.136 16.28 127.224 16.944 126.04 17.36L130.024 23H127.408ZM122.656 15.848C124.176 15.848 125.336 15.52 126.136 14.864C126.936 14.208 127.336 13.272 127.336 12.056C127.336 10.84 126.936 9.912 126.136 9.272C125.336 8.616 124.176 8.288 122.656 8.288H118.576V15.848H122.656ZM141.198 23.192C139.502 23.192 137.974 22.824 136.614 22.088C135.254 21.336 134.182 20.304 133.398 18.992C132.63 17.68 132.246 16.216 132.246 14.6C132.246 12.984 132.63 11.52 133.398 10.208C134.182 8.896 135.254 7.872 136.614 7.136C137.974 6.384 139.502 6.008 141.198 6.008C142.878 6.008 144.398 6.384 145.758 7.136C147.118 7.872 148.182 8.896 148.95 10.208C149.718 11.504 150.102 12.968 150.102 14.6C150.102 16.232 149.718 17.704 148.95 19.016C148.182 20.312 147.118 21.336 145.758 22.088C144.398 22.824 142.878 23.192 141.198 23.192ZM141.198 21.056C142.43 21.056 143.534 20.776 144.51 20.216C145.502 19.656 146.278 18.888 146.838 17.912C147.414 16.92 147.702 15.816 147.702 14.6C147.702 13.384 147.414 12.288 146.838 11.312C146.278 10.32 145.502 9.544 144.51 8.984C143.534 8.424 142.43 8.144 141.198 8.144C139.966 8.144 138.846 8.424 137.838 8.984C136.846 9.544 136.062 10.32 135.486 11.312C134.926 12.288 134.646 13.384 134.646 14.6C134.646 15.816 134.926 16.92 135.486 17.912C136.062 18.888 136.846 19.656 137.838 20.216C138.846 20.776 139.966 21.056 141.198 21.056Z" fill="#EDF2F7"/>
<path d="M107.032 52.192C105.352 52.192 103.832 51.824 102.472 51.088C101.128 50.336 100.072 49.312 99.304 48.016C98.536 46.704 98.152 45.232 98.152 43.6C98.152 41.968 98.536 40.504 99.304 39.208C100.072 37.896 101.136 36.872 102.496 36.136C103.856 35.384 105.376 35.008 107.056 35.008C108.368 35.008 109.568 35.232 110.656 35.68C111.744 36.112 112.672 36.76 113.44 37.624L111.88 39.136C110.616 37.808 109.04 37.144 107.152 37.144C105.904 37.144 104.776 37.424 103.768 37.984C102.76 38.544 101.968 39.32 101.392 40.312C100.832 41.288 100.552 42.384 100.552 43.6C100.552 44.816 100.832 45.92 101.392 46.912C101.968 47.888 102.76 48.656 103.768 49.216C104.776 49.776 105.904 50.056 107.152 50.056C109.024 50.056 110.6 49.384 111.88 48.04L113.44 49.552C112.672 50.416 111.736 51.072 110.632 51.52C109.544 51.968 108.344 52.192 107.032 52.192ZM124.096 52.192C122.4 52.192 120.872 51.824 119.512 51.088C118.152 50.336 117.08 49.304 116.296 47.992C115.528 46.68 115.144 45.216 115.144 43.6C115.144 41.984 115.528 40.52 116.296 39.208C117.08 37.896 118.152 36.872 119.512 36.136C120.872 35.384 122.4 35.008 124.096 35.008C125.776 35.008 127.296 35.384 128.656 36.136C130.016 36.872 131.08 37.896 131.848 39.208C132.616 40.504 133 41.968 133 43.6C133 45.232 132.616 46.704 131.848 48.016C131.08 49.312 130.016 50.336 128.656 51.088C127.296 51.824 125.776 52.192 124.096 52.192ZM124.096 50.056C125.328 50.056 126.432 49.776 127.408 49.216C128.4 48.656 129.176 47.888 129.736 46.912C130.312 45.92 130.6 44.816 130.6 43.6C130.6 42.384 130.312 41.288 129.736 40.312C129.176 39.32 128.4 38.544 127.408 37.984C126.432 37.424 125.328 37.144 124.096 37.144C122.864 37.144 121.744 37.424 120.736 37.984C119.744 38.544 118.96 39.32 118.384 40.312C117.824 41.288 117.544 42.384 117.544 43.6C117.544 44.816 117.824 45.92 118.384 46.912C118.96 47.888 119.744 48.656 120.736 49.216C121.744 49.776 122.864 50.056 124.096 50.056ZM136.668 35.2H143.748C145.524 35.2 147.1 35.552 148.476 36.256C149.852 36.96 150.916 37.952 151.668 39.232C152.436 40.496 152.82 41.952 152.82 43.6C152.82 45.248 152.436 46.712 151.668 47.992C150.916 49.256 149.852 50.24 148.476 50.944C147.1 51.648 145.524 52 143.748 52H136.668V35.2ZM143.604 49.912C144.964 49.912 146.156 49.648 147.18 49.12C148.22 48.592 149.02 47.856 149.58 46.912C150.14 45.952 150.42 44.848 150.42 43.6C150.42 42.352 150.14 41.256 149.58 40.312C149.02 39.352 148.22 38.608 147.18 38.08C146.156 37.552 144.964 37.288 143.604 37.288H139.068V49.912H143.604ZM168.689 49.912V52H156.497V35.2H168.353V37.288H158.897V42.448H167.321V44.488H158.897V49.912H168.689Z" fill="#38A169"/>
<path d="M45.2312 58.4712C47.5638 62.3423 53.1769 62.3423 55.5095 58.4712L70.549 33.5119C72.9587 29.513 70.0787 24.4153 65.4099 24.4153H35.3308C30.662 24.4153 27.782 29.513 30.1917 33.5119L45.2312 58.4712Z" fill="#03612F"/>
<path d="M24.4905 8.52879C26.8231 4.65767 32.4362 4.65766 34.7688 8.52879L49.8083 33.4881C52.2179 37.487 49.338 42.5847 44.6692 42.5847H14.5901C9.92125 42.5847 7.04131 37.487 9.45093 33.4881L24.4905 8.52879Z" fill="#38A169"/>
</svg>
