<svg width="42" height="40" viewBox="0 0 42 40" fill="none" xmlns="http://www.w3.org/2000/svg">
<g clip-path="url(#clip0)">
<path d="M40.4183 15.4143L7.87545 2.33819C6.50447 1.78725 4.95561 2.02961 3.83342 2.97036C2.71122 3.91127 2.24186 5.361 2.60865 6.75375L5.50525 17.7535H19.6874C20.34 17.7535 20.8691 18.2659 20.8691 18.8979C20.8691 19.5298 20.3401 20.0422 19.6874 20.0422H5.50525L2.60865 31.042C2.24186 32.4348 2.71114 33.8845 3.83342 34.8253C4.9579 35.768 6.50691 36.0074 7.87553 35.4575L40.4183 22.3815C41.9 21.7861 42.8204 20.4513 42.8204 18.8979C42.8204 17.3445 41.9 16.0096 40.4183 15.4143Z" fill="#38A169"/>
</g>
<defs>
<clipPath id="clip0">
<rect width="40.3344" height="39.0583" fill="white" transform="translate(0.992126 0.81543)"/>
</clipPath>
</defs>
</svg>
